HIERARCHY
ROOT Hips
{
	OFFSET 0.000000 0.000000 0.000000
	CHANNELS 6 Xposition Yposition Zposition Zrotation Yrotation Xrotation 
	JOINT LHipJoint
	{
		OFFSET 0.000000 0.000000 0.000000
		CHANNELS 3 Zrotation Yrotation Xrotation
		JOINT LeftUpLeg
		{
			OFFSET 1.363060 -1.794630 0.839290
			CHANNELS 3 Zrotation Yrotation Xrotation
			JOINT LeftLeg
			{
				OFFSET 2.448110 -6.726130 0.000000
				CHANNELS 3 Zrotation Yrotation Xrotation
				JOINT LeftFoot
				{
					OFFSET 2.562200 -7.039590 0.000000
					CHANNELS 3 Zrotation Yrotation Xrotation
					JOINT LeftToeBase
					{
						OFFSET 0.157640 -0.433110 2.322550
						CHANNELS 3 Zrotation Yrotation Xrotation
						End Site
						{
							OFFSET 0.000000 0.000000 0.000000
						}
					}
				}
			}
		}
	}
	JOINT RHipJoint
	{
		OFFSET 0.000000 0.000000 0.000000
		CHANNELS 3 Zrotation Yrotation Xrotation
		JOINT RightUpLeg
		{
			OFFSET -1.305520 -1.794630 0.839290
			CHANNELS 3 Zrotation Yrotation Xrotation
			JOINT RightLeg
			{
				OFFSET -2.542530 -6.985550 0.000000
				CHANNELS 3 Zrotation Yrotation Xrotation
				JOINT RightFoot
				{
					OFFSET -2.568260 -7.056230 0.000000
					CHANNELS 3 Zrotation Yrotation Xrotation
					JOINT RightToeBase
					{
						OFFSET -0.164730 -0.452590 2.363150
						CHANNELS 3 Zrotation Yrotation Xrotation
						End Site
						{
							OFFSET 0.000000 0.000000 0.000000
						}
					}
				}
			}
		}
	}
	JOINT LowerBack
	{
		OFFSET 0.000000 0.000000 0.000000
		CHANNELS 3 Zrotation Yrotation Xrotation
		JOINT Spine
		{
			OFFSET 0.028270 2.035590 -0.193380
			CHANNELS 3 Zrotation Yrotation Xrotation
			JOINT Spine1
			{
				OFFSET 0.056720 2.048850 -0.042750
				CHANNELS 3 Zrotation Yrotation Xrotation
				JOINT Neck
				{
					OFFSET 0.000000 0.000000 0.000000
					CHANNELS 3 Zrotation Yrotation Xrotation
					JOINT Neck1
					{
						OFFSET -0.054170 1.746240 0.172020
						CHANNELS 3 Zrotation Yrotation Xrotation
						JOINT Head
						{
							OFFSET 0.104070 1.761360 -0.123970
							CHANNELS 3 Zrotation Yrotation Xrotation
							End Site
							{
								OFFSET 0.000000 0.000000 0.000000
							}
						}
					}
				}
				JOINT LeftShoulder
				{
					OFFSET 0.000000 0.000000 0.000000
					CHANNELS 3 Zrotation Yrotation Xrotation
					JOINT LeftArm
					{
						OFFSET 3.362410 1.200890 -0.311210
						CHANNELS 3 Zrotation Yrotation Xrotation
						JOINT LeftForeArm
						{
							OFFSET 4.983000 -0.000000 -0.000000
							CHANNELS 3 Zrotation Yrotation Xrotation
							JOINT LeftHand
							{
								OFFSET 3.483560 -0.000000 -0.000000
								CHANNELS 3 Zrotation Yrotation Xrotation
								JOINT LeftFingerBase
								{
									OFFSET 0.000000 0.000000 0.000000
									CHANNELS 3 Zrotation Yrotation Xrotation
									JOINT LeftHandIndex1
									{
										OFFSET 0.715260 -0.000000 -0.000000
										CHANNELS 3 Zrotation Yrotation Xrotation
										End Site
										{
											OFFSET 0.000000 0.000000 0.000000
										}
									}
								}
								JOINT LThumb
								{
									OFFSET 0.000000 0.000000 0.000000
									CHANNELS 3 Zrotation Yrotation Xrotation
									End Site
									{
										OFFSET 0.000000 0.000000 0.000000
									}
								}
							}
						}
					}
				}
				JOINT RightShoulder
				{
					OFFSET 0.000000 0.000000 0.000000
					CHANNELS 3 Zrotation Yrotation Xrotation
					JOINT RightArm
					{
						OFFSET -3.136600 1.374050 -0.404650
						CHANNELS 3 Zrotation Yrotation Xrotation
						JOINT RightForeArm
						{
							OFFSET -5.241900 -0.000000 -0.000000
							CHANNELS 3 Zrotation Yrotation Xrotation
							JOINT RightHand
							{
								OFFSET -3.444170 -0.000000 -0.000000
								CHANNELS 3 Zrotation Yrotation Xrotation
								JOINT RightFingerBase
								{
									OFFSET 0.000000 0.000000 0.000000
									CHANNELS 3 Zrotation Yrotation Xrotation
									JOINT RightHandIndex1
									{
										OFFSET -0.622530 -0.000000 -0.000000
										CHANNELS 3 Zrotation Yrotation Xrotation
										End Site
										{
											OFFSET 0.000000 0.000000 0.000000
										}
									}
								}
								JOINT RThumb
								{
									OFFSET 0.000000 0.000000 0.000000
									CHANNELS 3 Zrotation Yrotation Xrotation
									End Site
									{
										OFFSET 0.000000 0.000000 0.000000
									}
								}
							}
						}
					}
				}
			}
		}
	}
}
MOTION
Frames: 9
Frame Time: 0.008333
-4.657820 17.229799 -4.185356 -31.311876 72.074635 -29.598799 16.449687 6.614047 -1.768077 -16.515359 1.406103 3.568679 1.710813 13.630791 51.225648 -2.773301 12.502568 -1.078036 11.895200 -18.346000 -65.656400 -23.591049 -4.583159 -4.754516 52.646670 4.689549 -0.231335 13.724850 -5.616346 10.845272 -1.819574 -5.505501 -25.261332 -0.033500 1.182200 -3.250200 2.376164 -1.481796 12.413736 2.423370 -1.248039 -5.873669 4.184590 -0.052905 -18.819050 3.988221 -3.954027 -15.336838 7.828399 -6.108570 16.947346 0.948100 -0.951500 13.364600 8.640951 -7.607352 0.256703 -89.995848 15.742625 45.585780 20.033259 -33.771286 -5.852286 -0.642024 2.380053 11.393001 18.769660 31.429230 9.931500 -7.125000 0.000000 0.000000 -12.583800 59.932700 -4.629900 -9.435213 8.866296 2.247821 81.111185 -29.923367 36.707687 -15.903709 29.107830 -3.685978 1.211947 -2.386692 -13.362615 -12.621964 -24.296453 4.961300 7.125000 0.000000 0.000000 15.601700 -51.410300 -2.514900 
-4.464051 17.181083 -4.075305 -33.562166 71.410011 -31.558344 16.374612 6.536145 -1.672674 -15.031742 1.923408 -0.023810 2.876996 14.542682 54.233646 -2.805117 13.088032 -3.797053 11.465300 -18.155400 -64.283700 -23.828871 -4.544217 -4.956183 54.133691 4.242650 0.668827 13.883203 -5.423900 10.434080 -1.940815 -4.987762 -25.915776 -0.039400 1.281600 -3.524100 3.338968 -1.350088 12.539239 2.429872 -0.906570 -5.890981 3.956664 0.041925 -19.039550 3.589384 -4.101217 -15.166816 7.661711 -6.205150 16.921135 0.943600 -1.070700 13.333900 8.619292 -7.587983 0.259052 -89.934978 15.495292 44.509827 19.903955 -33.680716 -5.938835 -0.623960 2.394221 11.131535 19.785164 32.670535 10.841300 -7.125000 0.000000 0.000000 -12.237100 61.345800 -4.911900 -9.323234 8.789696 2.211993 80.055785 -29.609952 38.587441 -17.513557 30.676524 -4.201308 1.218062 -2.391327 -14.807323 -14.255473 -24.404669 5.587300 7.125000 0.000000 0.000000 14.104300 -51.736000 -2.379000 
-4.283229 17.128526 -3.967997 -36.044137 70.676379 -33.702265 16.358788 6.403136 -1.631474 -13.628777 2.193698 -3.628154 3.812079 15.369330 56.509457 -2.912015 13.953676 -6.405727 11.722800 -18.271000 -65.107600 -24.087043 -4.492755 -5.143161 55.749998 3.903783 1.558257 14.080513 -5.201532 9.911866 -2.060031 -4.635112 -26.620808 -0.040800 1.303800 -3.585200 4.361691 -1.214187 12.720131 2.469075 -0.539369 -5.918892 3.794195 0.161156 -19.352415 3.276110 -4.150289 -14.760626 7.568035 -6.156437 16.773786 0.967300 -1.127300 13.159600 8.629202 -7.576124 0.262179 -89.953034 15.235821 43.074520 19.548205 -33.382133 -5.941553 -0.510861 2.413779 11.205092 21.963914 32.856619 12.039500 -7.125000 0.000000 0.000000 -9.934100 61.970800 -4.122900 -9.241653 8.722356 2.164565 79.022916 -28.920394 40.127575 -18.474888 31.548567 -4.512342 1.079040 -2.406287 -15.738563 -16.802633 -22.471236 5.965800 7.125000 0.000000 0.000000 11.066200 -50.189400 -1.430900 
-4.094177 17.087709 -3.868149 -38.032073 69.914531 -35.556949 16.416642 6.197587 -1.638123 -12.501207 2.384966 -6.977902 4.541019 16.088318 58.257247 -2.284962 11.774076 -8.583646 11.377400 -18.114900 -64.001300 -24.298214 -4.455152 -5.329621 57.120693 3.348670 2.537114 14.225542 -4.997711 9.519098 -2.167696 -4.068489 -27.287477 -0.033500 1.182000 -3.249900 5.259339 -1.025210 12.979683 2.503725 -0.121695 -5.899104 3.701236 0.316198 -19.541372 2.691018 -4.267720 -14.301235 7.478032 -6.142981 16.448897 1.027200 -1.254700 12.862400 8.664246 -7.567724 0.273308 -90.032802 14.752348 41.564820 19.035138 -32.953420 -5.905004 -0.366550 2.432363 11.104443 24.707297 32.943218 13.532700 -7.125000 0.000000 0.000000 -6.868700 62.631300 -2.949600 -9.194626 8.636415 2.126232 77.982047 -27.886692 41.450502 -19.055312 32.100465 -4.768819 0.931402 -2.447195 -16.611495 -19.767691 -21.120487 6.524000 7.125000 0.000000 0.000000 7.954200 -49.207600 -0.830100 
-3.901505 17.056328 -3.772581 -38.850071 69.419961 -36.404790 16.485433 5.911290 -1.711045 -12.000186 2.494109 -10.000165 5.011936 16.776230 59.391624 -1.743483 10.111780 -10.297481 11.195600 -18.029500 -63.415200 -24.402331 -4.408017 -5.480667 57.845350 2.722019 3.579709 14.304321 -4.728429 9.109732 -2.235561 -3.444943 -27.767786 -0.032200 1.158400 -3.184700 5.636618 -0.807195 13.311454 2.508906 0.250195 -5.872801 3.718298 0.485224 -19.624633 2.127484 -4.352025 -14.408036 7.352642 -6.132136 16.623881 1.096300 -1.320500 13.038900 8.693565 -7.533772 0.265974 -90.188154 14.226694 39.799570 18.622969 -32.628397 -5.912223 -0.254322 2.446176 10.816401 27.055757 33.299214 14.967400 -7.125000 0.000000 0.000000 -4.310400 63.504800 -1.936500 -9.193179 8.552557 2.069971 77.011338 -26.482094 42.528289 -19.388224 32.463265 -4.999593 0.835392 -2.499279 -17.361799 -22.604134 -21.274691 7.521700 7.125000 0.000000 0.000000 5.360600 -49.723800 -0.625900 
-3.701701 17.029995 -3.681073 -39.148342 69.124625 -36.831486 16.551138 5.604903 -1.798488 -11.907438 2.439230 -12.594218 5.152524 17.349913 59.704120 -1.232705 8.633688 -11.698830 11.210100 -18.036400 -63.461900 -24.435534 -4.374293 -5.638310 58.116747 1.655587 4.648933 14.310889 -4.384229 8.620754 -2.229649 -2.725142 -27.839443 -0.044100 1.355800 -3.728200 5.743446 -0.590337 13.594962 2.509490 0.559237 -5.825231 3.760820 0.646839 -19.557833 1.897759 -4.367523 -14.651032 6.957652 -6.125279 16.811252 0.924200 -1.368500 13.232000 8.762745 -7.492773 0.255240 -90.387698 13.652594 37.827773 18.220977 -32.311323 -5.902775 -0.142824 2.456928 10.638171 29.086194 33.166066 16.048200 -7.125000 0.000000 0.000000 -1.802200 63.817200 -0.822200 -9.224719 8.452038 2.007549 76.192665 -24.655424 43.186308 -19.168649 32.301494 -5.041838 0.713671 -2.545641 -17.557701 -25.244417 -21.445753 8.503800 7.125000 0.000000 0.000000 2.923800 -50.266500 -0.379800 
-3.505298 17.011452 -3.594392 -39.793357 68.861803 -37.637000 16.644697 5.294447 -1.897482 -11.808785 2.195938 -15.029303 5.102484 17.842402 59.426910 -0.651568 6.955625 -12.938449 11.051000 -17.959900 -62.947000 -24.451833 -4.349038 -5.803987 58.323639 0.222897 5.603600 14.261705 -4.094423 8.235954 -2.175069 -1.714071 -27.736903 -0.045900 1.382000 -3.800600 5.948817 -0.418928 13.943330 2.528041 0.830775 -5.775922 3.816833 0.789774 -19.547241 1.605621 -4.370163 -14.620412 6.603860 -6.063922 16.767116 0.775300 -1.426100 13.202700 8.842129 -7.461459 0.257864 -90.582463 13.152655 35.900828 17.873967 -32.037884 -5.904604 -0.064485 2.466209 10.378440 30.625801 33.356795 17.018600 -7.125000 0.000000 0.000000 0.005000 64.365600 0.002400 -9.262743 8.347678 1.955879 75.517131 -22.676243 43.444854 -18.549277 31.742414 -4.935403 0.572286 -2.580162 -17.174525 -27.508093 -21.486635 9.335800 7.125000 0.000000 0.000000 0.791200 -50.650100 -0.110200 
-3.321623 17.004539 -3.509577 -40.713534 68.638910 -38.702273 16.768265 4.964101 -2.049003 -11.687260 1.811805 -17.477753 4.832711 18.299160 58.583274 -0.576244 7.106301 -13.870645 11.033800 -17.951600 -62.891100 -24.504783 -4.287960 -5.930721 58.722812 -0.616235 6.629309 14.304045 -3.794827 7.781923 -2.193590 -1.146138 -28.051615 -0.048100 1.415100 -3.891600 6.209296 -0.305128 14.445616 2.548974 1.060030 -5.742310 3.855263 0.907239 -19.706368 1.180465 -4.361596 -14.319145 6.398611 -5.935234 16.507511 0.737700 -1.482800 12.974000 8.907069 -7.441368 0.278445 -90.722649 12.833050 34.103085 17.751462 -31.949936 -5.966325 -0.059992 2.478049 9.766717 31.284318 34.142552 17.780600 -7.125000 0.000000 0.000000 0.490600 65.341400 0.241200 -9.311304 8.251955 1.911775 75.094049 -20.537770 43.315033 -17.650492 30.900868 -4.710090 0.443757 -2.602427 -16.414372 -28.956377 -21.491498 9.872500 7.125000 0.000000 0.000000 -0.576800 -50.888800 0.083700 
-3.131145 17.004101 -3.428273 -41.649798 68.510803 -39.714314 16.891402 4.619218 -2.230422 -11.699010 1.359731 -19.814566 4.225362 18.649415 56.968307 -0.897411 8.525923 -14.591051 11.455100 -18.150700 -64.250700 -24.565618 -4.203559 -6.025557 59.162261 -1.035956 7.727368 14.411191 -3.445188 7.206683 -2.279739 -0.976198 -28.701236 -0.045400 1.375600 -3.782900 6.523185 -0.231265 14.833091 2.547279 1.241043 -5.729758 3.771498 0.980572 -19.869272 0.705676 -4.319995 -13.974995 6.227082 -5.746069 16.242143 0.742900 -1.517000 12.734600 8.956115 -7.425204 0.307230 -90.777474 12.702014 32.530332 17.845995 -32.037906 -6.081368 -0.111004 2.487076 8.742830 31.364395 35.189107 18.328100 -7.125000 0.000000 0.000000 0.097300 66.453700 0.050300 -9.374345 8.155663 1.863327 74.900208 -18.416068 42.867249 -16.608887 29.921478 -4.424212 0.351114 -2.620257 -15.397908 -29.508970 -21.799071 10.233500 7.125000 0.000000 0.000000 -1.038900 -51.320900 0.161800 
